<svg width="109" height="36" viewBox="0 0 109 36" fill="none" xmlns="http://www.w3.org/2000/svg">
<path d="M25.5322 9.94385C25.7373 9.94385 25.9082 9.87549 26.0449 9.73877C26.1816 9.60205 26.25 9.43115 26.25 9.22607V8.47412C26.25 8.26904 26.1816 8.09814 26.0449 7.96143C25.9082 7.82471 25.7373 7.75635 25.5322 7.75635H0.717773C0.512695 7.75635 0.341797 7.82471 0.205078 7.96143C0.0683594 8.09814 0 8.26904 0 8.47412V9.22607C0 9.43115 0.0683594 9.60205 0.205078 9.73877C0.341797 9.87549 0.512695 9.94385 0.717773 9.94385H25.5322ZM18.9697 17.9761C18.9697 18.1812 18.8957 18.3521 18.7476 18.4888C18.5994 18.6255 18.4229 18.6938 18.2178 18.6938H0.717773C0.512695 18.6938 0.341797 18.6255 0.205078 18.4888C0.0683594 18.3521 0 18.1812 0 17.9761V17.2241C0 17.019 0.0683594 16.8481 0.205078 16.7114C0.341797 16.5747 0.512695 16.5063 0.717773 16.5063H18.2178C18.4229 16.5063 18.5994 16.5747 18.7476 16.7114C18.8957 16.8481 18.9697 17.019 18.9697 17.2241V17.9761ZM26.25 26.7261C26.25 26.9312 26.1816 27.1021 26.0449 27.2388C25.9082 27.3755 25.7373 27.4438 25.5322 27.4438H0.717773C0.512695 27.4438 0.341797 27.3755 0.205078 27.2388C0.0683594 27.1021 0 26.9312 0 26.7261V25.9741C0 25.769 0.0683594 25.5981 0.205078 25.4614C0.341797 25.3247 0.512695 25.2563 0.717773 25.2563H25.5322C25.7373 25.2563 25.9082 25.3247 26.0449 25.4614C26.1816 25.5981 26.25 25.769 26.25 25.9741V26.7261Z" fill="white"/>
<g clip-path="url(#clip0_3113_2910)">
<path d="M60.0144 32.777L62.0464 24.5728H58.7979L59.2305 22.7152H67.969L67.5433 24.5728H64.7059L62.674 32.777H60.0144Z" fill="white"/>
<path d="M66.1242 32.777L68.5819 22.7152H75.6374L75.1106 24.5596H70.9029L70.3736 26.7544H74.4933L74.0744 28.5129H69.9617L69.3978 30.9325H73.8076L73.1798 32.777H66.1242Z" fill="white"/>
<path d="M81.8194 32.6287C81.6859 32.6596 81.4994 32.6904 81.2599 32.7213C81.025 32.7521 80.7694 32.7808 80.4931 32.8072C80.2214 32.8336 79.9451 32.8557 79.6641 32.8733C79.3878 32.8909 79.1391 32.8998 78.9181 32.8998C78.2872 32.8998 77.7253 32.8403 77.2326 32.7213C76.7398 32.6023 76.323 32.4105 75.9822 32.1461C75.6414 31.8817 75.3812 31.5379 75.2016 31.1148C75.022 30.6873 74.9322 30.1672 74.9322 29.5546C74.9322 29.3166 74.9437 29.0676 74.9668 28.8076C74.9898 28.5476 75.0289 28.2721 75.0842 27.9812L75.3121 26.8309C75.4872 25.9274 75.7335 25.1892 76.0513 24.6163C76.3737 24.0389 76.7651 23.5872 77.2256 23.261C77.6862 22.9305 78.2181 22.7035 78.8214 22.5801C79.4293 22.4567 80.1086 22.395 80.8592 22.395C81.0803 22.395 81.3267 22.4038 81.5984 22.4215C81.8701 22.4391 82.1372 22.4611 82.3997 22.4876C82.6668 22.514 82.9109 22.5449 83.1319 22.5801C83.3576 22.611 83.7347 22.7407 83.859 22.776L83.4333 24.4775C83.2583 24.4642 82.9661 24.451 82.7589 24.4378C82.5517 24.4246 82.3352 24.4113 82.1096 24.3981C81.8885 24.3849 81.6628 24.3761 81.4326 24.3717C81.2069 24.3629 80.9859 24.3585 80.7694 24.3585C80.378 24.3585 80.0303 24.3959 79.7263 24.4708C79.427 24.5458 79.1622 24.6846 78.9319 24.8873C78.7062 25.0857 78.5128 25.3611 78.3516 25.7137C78.1951 26.0619 78.0638 26.5114 77.9579 27.0623L77.7299 28.2126C77.647 28.6622 77.6056 29.0368 77.6056 29.3365C77.6056 29.6538 77.647 29.916 77.7299 30.1232C77.8128 30.3259 77.9349 30.4868 78.096 30.6058C78.2618 30.7248 78.4645 30.8085 78.7039 30.857C78.948 30.9011 79.2266 30.9231 79.5398 30.9231C79.7563 30.9231 79.9796 30.9209 80.2099 30.9165C80.4401 30.9077 80.6681 30.8989 80.8938 30.89C81.1194 30.8812 81.3382 30.8702 81.55 30.857C81.7619 30.8394 82.1574 30.8239 82.3324 30.8107L81.8194 32.6287Z" fill="white"/>
<path d="M89.1999 32.777L90.0815 28.5394H86.0291L84.9523 32.777H82.4948L84.7504 22.7152H87.2078L86.3676 26.6156H90.521L91.5564 22.7152H94.0001L91.6435 32.777H89.1999Z" fill="white"/>
<path d="M42.1347 6.41379C41.8987 9.40433 44.7897 10.8775 46.2646 11.2403C45.36 10.9375 44.4783 9.44218 44.1505 8.73241C45.3469 9.42641 48.5754 10.805 51.9186 10.7671C55.2618 10.7293 56.7204 12.234 57.0318 12.9911L51.132 13.5116L54.2294 13.7955L55.606 14.7419L58.6051 14.174C63.9542 14.3633 65.7504 18.2277 65.9798 20.1362L63.5216 19.2845C59.195 18.0731 53.9835 20.01 51.9186 21.1299L53.9835 19.2845C46.1171 21.0636 42.0856 26.2403 41.0531 28.6062C40.6205 31.8617 42.9378 32.8018 44.1505 32.8649H56.7368C58.0741 32.8649 58.5395 32.0763 58.6051 31.6819L59.2934 29.0321C60.0013 26.9122 58.4739 26.6662 57.6217 26.8081C55.9174 26.7766 52.0071 26.7324 50.0012 26.8081C47.9952 26.8838 47.4282 26.0826 47.3954 25.6725C47.3167 23.7797 49.0998 22.9911 50.0012 22.8334L49.7062 24.0636C53.1281 20.5431 57.294 19.7892 58.9492 19.8523C58.9492 19.8523 65.3079 20.0258 66.7665 20.7987C66.0978 15.1204 61.2764 13.2277 58.9492 12.9911C57.2579 10.9469 53.9508 10.2781 52.5086 10.1993C51.7219 9.36648 52.6069 9.15827 53.1477 9.15827H60.5717C61.791 9.15827 62.1286 8.71663 62.1449 8.49581L63.8166 4.09518C64.5245 2.99739 63.7182 2.84912 63.2266 2.91222H44.6913C43.9375 2.83335 42.3707 3.42326 42.1347 6.41379Z" fill="white"/>
<path d="M46.6582 11.7135C42.9216 11.7135 41.3975 9.06369 41.1025 7.73877V10.6252C42.8332 12.0637 45.5274 11.9501 46.6582 11.7135Z" fill="white"/>
<path d="M48.9198 15.2151C44.6719 14.9123 41.9383 16.0353 41.1025 16.6347V19.9943C41.1025 17.1552 46.314 15.6252 48.9198 15.2151Z" fill="white"/>
</g>
<defs>
<clipPath id="clip0_3113_2910">
<rect width="68" height="30" fill="white" transform="translate(41 2.8999)"/>
</clipPath>
</defs>
</svg>
